<svg width="1392" height="254" viewBox="0 0 1392 254" fill="none" xmlns="http://www.w3.org/2000/svg">
<path d="M86.8743 0C124.626 0 160.114 23.5443 160.114 69.0265H117.47C117.47 48.9424 102.312 38.4617 87.7118 38.4617C71.8199 38.4617 58.0284 48.9382 58.0234 63.2856H58.031C58.0233 116.696 185.701 78.537 185.701 172.24V172.262C185.701 219.955 146.049 253.562 92.5653 253.562C34.9412 253.561 -6.67224 216.667 0.887296 152.683H45.3694C40.4305 187.475 55.3564 216.666 92.6198 216.666C122.494 216.666 140.328 197.257 140.328 173.962C140.328 113.981 14.2238 159.3 14.2235 63.3091C14.2235 27.7023 49.1224 2.55267e-05 86.8743 0Z" fill="#50FFEB"/>
<path d="M1280.97 0.876505C1340.88 0.876657 1374.78 36.918 1385.72 76.4112H1335.54C1330.2 63.2701 1317.45 42.0533 1280.96 42.0533C1244.47 42.0534 1216.48 71.5864 1216.48 127.215C1216.48 182.844 1243.87 212.369 1280.96 212.369C1318.04 212.369 1343.3 190.322 1345.09 154.025H1276.19V112.243H1390.84C1401.08 209.747 1341.71 253.561 1280.97 253.562C1220.24 253.562 1170.04 208.452 1170.04 127.215C1170.04 45.9788 1221.05 0.876505 1280.97 0.876505Z" fill="#50FFEB"/>
<path d="M339.593 47.5222H277.798V249.046H233.176V47.5222H171.729V5.40676H339.593V47.5222Z" fill="#50FFEB"/>
<path fill-rule="evenodd" clip-rule="evenodd" d="M518.7 249.046H470.589L456.299 202.051H373.329L359.039 249.046H312.324L394.938 5.40676H436.776L518.7 249.046ZM382.401 160.285H445.491L414.469 64.2167L382.401 160.285Z" fill="#50FFEB"/>
<path fill-rule="evenodd" clip-rule="evenodd" d="M622.419 5.39918C622.419 5.39918 704.343 4.60807 704.343 73.6264C704.343 103.368 689.13 120.605 671.809 130.597H671.817C690.952 140.115 704.35 161.736 704.35 183.829V249.046H659.38V191.176C659.38 170.735 642.903 154.173 622.426 154.134L580.759 154.025V249.039H536.486V5.39918H622.419ZM580.759 112.251H622.426V112.259C622.426 112.259 659.38 112.258 659.38 79.7158C659.38 47.1733 622.426 47.1729 622.426 47.1729H580.759V112.251Z" fill="#50FFEB"/>
<path d="M946.85 249.046H902.237V5.40676H946.85V249.046Z" fill="#50FFEB"/>
<path d="M1103.69 165.165V5.40676H1145.18V249.046H1105.43L1018.8 81.6324L1019.03 249.046H977.306V5.40676H1020.88L1103.69 165.165Z" fill="#50FFEB"/>
<path d="M779.366 206.931H875.572V249.039H734.822V5.40676H779.366V206.931Z" fill="#50FFEB"/>
</svg>
