<svg width="500" height="500" viewBox="0 0 500 500" fill="none" xmlns="http://www.w3.org/2000/svg">
<rect width="500" height="500" rx="110" fill="#321E37"/>
<path d="M201.958 161.277C201.958 141.275 221.187 126.673 243.356 126.673C263.719 126.673 284.852 141.275 284.852 169.267H344.318C344.318 105.877 294.835 73.0691 242.184 73.0691C189.534 73.0691 140.882 111.682 140.882 161.305C140.882 295.092 316.721 231.929 316.721 315.521C316.721 347.991 291.851 375.04 250.201 375.04C198.236 375.04 177.433 334.358 184.309 285.868H122.282C111.737 375.04 169.77 426.459 250.124 426.459C324.7 426.459 379.993 379.622 379.993 313.15V313.122C379.993 182.526 201.958 235.714 201.972 161.277H201.958Z" fill="#50FFEB"/>
</svg>
